#tb 0: 1/25
0,          0,          0,        1,   149760, 0xf4bafc83
0,          1,          1,        1,   149760, 0x611ca492
0,          2,          2,        1,   149760, 0x8fa9bbb1
0,          3,          3,        1,   149760, 0x3926aed3
0,          4,          4,        1,   149760, 0x33e4f7f0
0,          5,          5,        1,   149760, 0x03cc4fab
0,          6,          6,        1,   149760, 0xbfae58e5
0,          7,          7,        1,   149760, 0x0e6f1fea
0,          8,          8,        1,   149760, 0x5a2ed57e
0,          9,          9,        1,   149760, 0x5513cc3a
0,         10,         10,        1,   149760, 0xd610ccca
0,         11,         11,        1,   149760, 0xbf27617f
0,         12,         12,        1,   149760, 0x878cd03b
0,         13,         13,        1,   149760, 0x7b7ec3e9
0,         14,         14,        1,   149760, 0xdaff0ba7
0,         15,         15,        1,   149760, 0xce3be576
0,         16,         16,        1,   149760, 0x16d32b84
0,         17,         17,        1,   149760, 0xb7f6a144
0,         18,         18,        1,   149760, 0x4dfb9b67
0,         19,         19,        1,   149760, 0x29cb06ba
0,         20,         20,        1,   149760, 0xcee5f14c
0,         21,         21,        1,   149760, 0xe05bde26
0,         22,         22,        1,   149760, 0xf717e789
0,         23,         23,        1,   149760, 0xbbbf0ce8
0,         24,         24,        1,   149760, 0x0e3ccfb1
0,         25,         25,        1,   149760, 0x84204399
0,         26,         26,        1,   149760, 0x02063b2b
0,         27,         27,        1,   149760, 0xa4198aab
0,         28,         28,        1,   149760, 0x4a4075aa
0,         29,         29,        1,   149760, 0x1869435b
0,         30,         30,        1,   149760, 0x04a12a8b
0,         31,         31,        1,   149760, 0x7ab3f640
0,         32,         32,        1,   149760, 0xba55f83a
0,         33,         33,        1,   149760, 0xa8abaa48
0,         34,         34,        1,   149760, 0x25483cb4
0,         35,         35,        1,   149760, 0xc6925d6d
0,         36,         36,        1,   149760, 0xc944b04d
0,         37,         37,        1,   149760, 0xd7093017
0,         38,         38,        1,   149760, 0x8d11c574
0,         39,         39,        1,   149760, 0xdbaab3e1
0,         40,         40,        1,   149760, 0xb412a3d9
0,         41,         41,        1,   149760, 0x37b918a6
0,         42,         42,        1,   149760, 0x6f6e7575
0,         43,         43,        1,   149760, 0x059a55de
0,         44,         44,        1,   149760, 0xe75aa6e6
0,         45,         45,        1,   149760, 0x627394bf
0,         46,         46,        1,   149760, 0xbcf99ab9
0,         47,         47,        1,   149760, 0x29c52e30
0,         48,         48,        1,   149760, 0x22056e1a
0,         49,         49,        1,   149760, 0xf272fa39
0,         50,         50,        1,   149760, 0x4b89033e
0,         51,         51,        1,   149760, 0x0a59e138
0,         52,         52,        1,   149760, 0x61a1a6c8
0,         53,         53,        1,   149760, 0xe5414697
0,         54,         54,        1,   149760, 0x6db38ec2
0,         55,         55,        1,   149760, 0x2d09b0ba
0,         56,         56,        1,   149760, 0x014a751e
0,         57,         57,        1,   149760, 0x3e6f78d6
0,         58,         58,        1,   149760, 0xed483aab
0,         59,         59,        1,   149760, 0xcf366ee0
0,         60,         60,        1,   149760, 0x4fc5e2dc
0,         61,         61,        1,   149760, 0xf2a16393
0,         62,         62,        1,   149760, 0xaa7ff5be
0,         63,         63,        1,   149760, 0xa8c4c963
0,         64,         64,        1,   149760, 0x3af766cf
0,         65,         65,        1,   149760, 0x3af766cf
0,         66,         66,        1,   149760, 0x11de29e7
0,         67,         67,        1,   149760, 0x3aa137c0
0,         68,         68,        1,   149760, 0x6f5bf4c4
0,         69,         69,        1,   149760, 0xa5b8f392
0,         70,         70,        1,   149760, 0x106ee459
0,         71,         71,        1,   149760, 0x65dd99cc
0,         72,         72,        1,   149760, 0x96facd15
0,         73,         73,        1,   149760, 0x3355cb07
0,         74,         74,        1,   149760, 0xe994f26b
0,         75,         75,        1,   149760, 0xe955f0d5
0,         76,         76,        1,   149760, 0xb740949e
0,         77,         77,        1,   149760, 0x0b95963b
0,         78,         78,        1,   149760, 0xdf7cf302
0,         79,         79,        1,   149760, 0x8805c30d
0,         80,         80,        1,   149760, 0xc30c832a
0,         81,         81,        1,   149760, 0x696836a7
0,         82,         82,        1,   149760, 0x696836a7
0,         83,         83,        1,   149760, 0x4c7e0e68
0,         84,         84,        1,   149760, 0xfee52485
0,         85,         85,        1,   149760, 0xebbe8381
0,         86,         86,        1,   149760, 0xb30ff0a9
0,         87,         87,        1,   149760, 0x4ddafbfb
0,         88,         88,        1,   149760, 0x5449c902
0,         89,         89,        1,   149760, 0x79e61161
0,         90,         90,        1,   149760, 0x72f1a340
0,         91,         91,        1,   149760, 0xf98bae64
0,         92,         92,        1,   149760, 0x253dd19f
0,         93,         93,        1,   149760, 0x253dd19f
0,         94,         94,        1,   149760, 0xc16e6af4
0,         95,         95,        1,   149760, 0x66f2a539
0,         96,         96,        1,   149760, 0xfccfd340
0,         97,         97,        1,   149760, 0xd76a28c9
0,         98,         98,        1,   149760, 0x38797af0
0,         99,         99,        1,   149760, 0x06165c19
0,        100,        100,        1,   149760, 0x9afee257
0,        101,        101,        1,   149760, 0x1b2ce435
0,        102,        102,        1,   149760, 0xb3e2de89
0,        103,        103,        1,   149760, 0xb585e81f
0,        104,        104,        1,   149760, 0x6743ece6
0,        105,        105,        1,   149760, 0xfe5a001f
0,        106,        106,        1,   149760, 0x064a778f
0,        107,        107,        1,   149760, 0x99907eef
0,        108,        108,        1,   149760, 0x1b9ec247
0,        109,        109,        1,   149760, 0x52adad6c
0,        110,        110,        1,   149760, 0xf5176bd9
0,        111,        111,        1,   149760, 0xefdfa365
0,        112,        112,        1,   149760, 0xa2e8447f
0,        113,        113,        1,   149760, 0x3ea43a87
0,        114,        114,        1,   149760, 0xbe643579
0,        115,        115,        1,   149760, 0x518ae330
0,        116,        116,        1,   149760, 0x49d815e6
0,        117,        117,        1,   149760, 0xbfbb1bf0
0,        118,        118,        1,   149760, 0x19596f6f
0,        119,        119,        1,   149760, 0x4f6cbeec
0,        120,        120,        1,   149760, 0xdd3f7460
0,        121,        121,        1,   149760, 0xf2bb54f3
0,        122,        122,        1,   149760, 0xb9d5d7cd
0,        123,        123,        1,   149760, 0xe62736a5
0,        124,        124,        1,   149760, 0x29c6f950
0,        125,        125,        1,   149760, 0x99e1faed
0,        126,        126,        1,   149760, 0x5c149afe
0,        127,        127,        1,   149760, 0xb4118f9b
0,        128,        128,        1,   149760, 0x262d7f30
0,        129,        129,        1,   149760, 0x262d7f30
0,        130,        130,        1,   149760, 0x13e286ed
0,        131,        131,        1,   149760, 0xee6b3447
0,        132,        132,        1,   149760, 0x9e749867
0,        133,        133,        1,   149760, 0xdbca6bab
0,        134,        134,        1,   149760, 0x154c9331
0,        135,        135,        1,   149760, 0x653a3058
0,        136,        136,        1,   149760, 0x739c1e57
0,        137,        137,        1,   149760, 0x8e05e122
0,        138,        138,        1,   149760, 0xe21f583a
0,        139,        139,        1,   149760, 0xa58149fc
0,        140,        140,        1,   149760, 0x90bd3787
0,        141,        141,        1,   149760, 0x385aa42a
0,        142,        142,        1,   149760, 0xf2589fc6
0,        143,        143,        1,   149760, 0xd5233b3b
0,        144,        144,        1,   149760, 0x2cc2d9cc
0,        145,        145,        1,   149760, 0xb9b0eeef
0,        146,        146,        1,   149760, 0xa9a60da9
0,        147,        147,        1,   149760, 0xb854378a
0,        148,        148,        1,   149760, 0xa76e2c37
0,        149,        149,        1,   149760, 0xbe5c0542
0,        150,        150,        1,   149760, 0x4d78b907
0,        151,        151,        1,   149760, 0x6119f5d7
0,        152,        152,        1,   149760, 0x195ae3c8
0,        153,        153,        1,   149760, 0x35e9de61
0,        154,        154,        1,   149760, 0x99f0df3b
0,        155,        155,        1,   149760, 0x1a0ebfee
0,        156,        156,        1,   149760, 0x4ece0a87
0,        157,        157,        1,   149760, 0x670773b9
0,        158,        158,        1,   149760, 0xae8c2789
0,        159,        159,        1,   149760, 0xa145e3f8
0,        160,        160,        1,   149760, 0x130d2ea3
0,        161,        161,        1,   149760, 0x9afdf6dc
0,        162,        162,        1,   149760, 0x8f8ed056
0,        163,        163,        1,   149760, 0x8d50ad5c
0,        164,        164,        1,   149760, 0x50b41bbb
0,        165,        165,        1,   149760, 0xe8a89c0b
0,        166,        166,        1,   149760, 0x4862c664
0,        167,        167,        1,   149760, 0x9f99193f
0,        168,        168,        1,   149760, 0x3d2ea4d8
0,        169,        169,        1,   149760, 0xfcb83723
0,        170,        170,        1,   149760, 0x2e135fe9
0,        171,        171,        1,   149760, 0xcd059eeb
0,        172,        172,        1,   149760, 0xcc2914ab
0,        173,        173,        1,   149760, 0x63a4cf21
0,        174,        174,        1,   149760, 0x0bdf9666
0,        175,        175,        1,   149760, 0x8fcd46d9
0,        176,        176,        1,   149760, 0xa2a94d81
0,        177,        177,        1,   149760, 0x72da1124
0,        178,        178,        1,   149760, 0x4faf50a2
0,        179,        179,        1,   149760, 0x52168ea8
0,        180,        180,        1,   149760, 0x766cd6e4
0,        181,        181,        1,   149760, 0x9a76dd3f
0,        182,        182,        1,   149760, 0xacf745bb
0,        183,        183,        1,   149760, 0xacf745bb
0,        184,        184,        1,   149760, 0x5d0f5914
0,        185,        185,        1,   149760, 0x5d0f5914
0,        186,        186,        1,   149760, 0x491b5959
0,        187,        187,        1,   149760, 0xce9bf07f
0,        188,        188,        1,   149760, 0x45123e08
0,        189,        189,        1,   149760, 0x7ec1ced4
0,        190,        190,        1,   149760, 0x7ec1ced4
0,        191,        191,        1,   149760, 0xd383e72e
0,        192,        192,        1,   149760, 0x29558d4c
0,        193,        193,        1,   149760, 0xdcea6ec3
0,        194,        194,        1,   149760, 0x29558d4c
0,        195,        195,        1,   149760, 0x55b305ad
0,        196,        196,        1,   149760, 0x68326c39
0,        197,        197,        1,   149760, 0x89c8c0f7
0,        198,        198,        1,   149760, 0x1fb33243
0,        199,        199,        1,   149760, 0xa07b14e8
0,        200,        200,        1,   149760, 0x6b37b02f
0,        201,        201,        1,   149760, 0x7453171e
0,        202,        202,        1,   149760, 0xec95ce93
0,        203,        203,        1,   149760, 0xdbb0481b
0,        204,        204,        1,   149760, 0xe44eaafd
0,        205,        205,        1,   149760, 0xcdf5dfd5
0,        206,        206,        1,   149760, 0x42695b4e
0,        207,        207,        1,   149760, 0xe4e26db0
0,        208,        208,        1,   149760, 0xada778f6
0,        209,        209,        1,   149760, 0x77dab36a
0,        210,        210,        1,   149760, 0xcabeb23d
0,        211,        211,        1,   149760, 0x43d21021
0,        212,        212,        1,   149760, 0xe4a5280c
0,        213,        213,        1,   149760, 0xeb408a99
0,        214,        214,        1,   149760, 0x0751fc6c
0,        215,        215,        1,   149760, 0x2e770c68
0,        216,        216,        1,   149760, 0x5a799fb0
0,        217,        217,        1,   149760, 0x0e2e22dd
0,        218,        218,        1,   149760, 0x276e6e88
0,        219,        219,        1,   149760, 0xf83b9da4
0,        220,        220,        1,   149760, 0xd4599290
0,        221,        221,        1,   149760, 0xd4599290
0,        222,        222,        1,   149760, 0xcf41ec75
0,        223,        223,        1,   149760, 0x84af0bfc
0,        224,        224,        1,   149760, 0x59db5c12
0,        225,        225,        1,   149760, 0x0405a92a
0,        226,        226,        1,   149760, 0xfde2c0fe
0,        227,        227,        1,   149760, 0x96a68bab
0,        228,        228,        1,   149760, 0x7e9d4983
0,        229,        229,        1,   149760, 0x27b724c9
0,        230,        230,        1,   149760, 0x402cdb15
0,        231,        231,        1,   149760, 0x0d89328b
0,        232,        232,        1,   149760, 0x08847a7e
0,        233,        233,        1,   149760, 0x8eb7f52f
0,        234,        234,        1,   149760, 0x49bf75bb
0,        235,        235,        1,   149760, 0xbd6c77e3
0,        236,        236,        1,   149760, 0x9eb5a5c0
0,        237,        237,        1,   149760, 0xb5900c9b
0,        238,        238,        1,   149760, 0xa9278bd6
0,        239,        239,        1,   149760, 0x688d4c01
0,        240,        240,        1,   149760, 0xe2669ce6
0,        241,        241,        1,   149760, 0xb80590b9
0,        242,        242,        1,   149760, 0xcdcc0036
0,        243,        243,        1,   149760, 0xad653077
0,        244,        244,        1,   149760, 0xe87179ae
0,        245,        245,        1,   149760, 0x91553e8b
0,        246,        246,        1,   149760, 0xd254f2b4
0,        247,        247,        1,   149760, 0xe284e289
0,        248,        248,        1,   149760, 0x09118405
0,        249,        249,        1,   149760, 0x5f46d196
0,        250,        250,        1,   149760, 0xfee1f4be
0,        251,        251,        1,   149760, 0xbccf48bc
0,        252,        252,        1,   149760, 0x48327792
0,        253,        253,        1,   149760, 0x3d893b3c
0,        254,        254,        1,   149760, 0xb2ae071d
0,        255,        255,        1,   149760, 0x278e0be3
